P3
10 10
255
255 255 255 128 0 128 128 0 128 128 0 128 128 0 128 128 0 128 128 0 128 128 0 128 128 0 128 255 255 255 
128 25 128 255 255 255 128 25 128 128 25 128 128 25 128 128 25 128 128 25 128 128 25 128 255 255 255 128 25 128 
128 51 128 128 51 128 255 255 255 128 51 128 128 51 128 128 51 128 128 51 128 255 255 255 128 51 128 128 51 128 
128 76 128 128 76 128 128 76 128 255 255 255 128 76 128 128 76 128 255 255 255 128 76 128 128 76 128 128 76 128 
128 102 128 128 102 128 128 102 128 128 102 128 255 255 255 255 255 255 128 102 128 128 102 128 128 102 128 128 102 128 
128 127 128 128 127 128 128 127 128 128 127 128 255 255 255 255 255 255 128 127 128 128 127 128 128 127 128 128 127 128 
128 153 128 128 153 128 128 153 128 255 255 255 128 153 128 128 153 128 255 255 255 128 153 128 128 153 128 128 153 128 
128 178 128 128 178 128 255 255 255 128 178 128 128 178 128 128 178 128 128 178 128 255 255 255 128 178 128 128 178 128 
128 204 128 255 255 255 128 204 128 128 204 128 128 204 128 128 204 128 128 204 128 128 204 128 255 255 255 128 204 128 
255 255 255 128 229 128 128 229 128 128 229 128 128 229 128 128 229 128 128 229 128 128 229 128 128 229 128 255 255 255 
